<?xml version="1.0" standalone="no"?>
<!DOCTYPE svg PUBLIC "-//W3C//DTD SVG 1.1//EN" "http://www.w3.org/Graphics/SVG/1.1/DTD/svg11.dtd" >
<svg xmlns="http://www.w3.org/2000/svg" xmlns:xlink="http://www.w3.org/1999/xlink" version="1.1">
<metadata></metadata>
<defs>
<font id="gartonmedium" horiz-adv-x="583" >
<font-face units-per-em="2048" ascent="1638" descent="-410" />
<missing-glyph horiz-adv-x="547" />
<glyph horiz-adv-x="0" />
<glyph unicode="&#xd;" horiz-adv-x="0" />
<glyph unicode=" "  horiz-adv-x="547" />
<glyph unicode="&#x09;" horiz-adv-x="547" />
<glyph unicode="&#xa0;" horiz-adv-x="547" />
<glyph unicode="!" horiz-adv-x="229" d="M180 862q-11 -121 -23.5 -245t-19.5 -202.5t-12 -160.5q-11 0 -25 16q-6 72 -11 178t-9 182t-12 165.5t-25 185.5q0 64 49 82q16 6 29 6q31 -1 49 -27q24 -32 24 -74q0 -18 -6 -56t-8 -50zM182 114q8 -16 8 -36q-4 -60 -48 -74q-18 -4 -26 -4q-50 0 -71 51q-4 17 -4 27 q5 40 29 59q18 15 44 15q46 0 68 -38z" />
<glyph unicode="&#x22;" horiz-adv-x="481" d="M223 1280q15 -40 15 -84q0 -67 -36.5 -128t-107.5 -132q-22 -22 -34 -22q-14 0 -15 24q153 114 153 278q-10 16 -26 17q-10 0 -32 -8.5t-34 -8.5q-22 0 -40 27q-16 24 -17 45q1 18 11 33q34 37 67 37q68 0 96 -78zM430 1280q14 -40 14 -84q0 -67 -36 -128t-107 -132 q-22 -22 -35 -22q-14 0 -14 24q154 114 154 278q-10 16 -27 17q-10 0 -32 -9q-21 -8 -33 -8q-24 0 -42 27q-16 23 -16 43q0 16 12 35q34 37 66 37q71 0 96 -78z" />
<glyph unicode="$" horiz-adv-x="764" d="M717 219q-18 -65 -67.5 -103t-145.5 -92q-6 -34 -7 -116.5t-9 -122.5l-32 6q0 17 1.5 49t1.5 62q-1 72 -11 122q-49 -16 -139 -16q-6 -41 -7.5 -116.5t-4.5 -108.5q-8 0 -17.5 2.5t-13.5 3.5l2 225q-80 24 -132 55t-85 95q-21 42 -21 78q0 52 34 82q10 14 32 14 q36 -214 156 -246l22 8l-4 373q-110 40 -156 117q-36 54 -36 122q0 48 18 97q22 64 70 106q46 42 106 56q0 32 -1 68.5t-1 44.5q0 32 10 46q32 -10 32 -59q0 -17 -2.5 -46t-2.5 -52q12 0 42 2q31 2 47 2q40 0 58 -4q12 19 13 53q0 12 -3 46t-3 60l14 13q29 -37 29 -179 q140 -44 158 -128q4 -28 4 -44q0 -42 -27 -71q-26 -21 -45 -23q-6 0 -22 4q-6 6 -7 15q0 8 11.5 27.5t11.5 33.5q-4 100 -66 119l-12 -10l-4 -315q21 -14 58.5 -32t62.5 -34t47 -43q55 -76 55 -162q0 -40 -12 -84zM272 922q-15 0 -26 -5t-18 -11t-16.5 -17t-13.5 -15 q-48 -48 -48 -120q0 -32 16 -68q44 -78 100 -78q10 40 10 121q0 24 -2 87t-2 106zM456 916q-14 3 -31.5 7.5t-33 8.5t-29.5 4q-30 0 -48 -8v-326q66 -22 138 -22q4 102 4 336zM456 84v350q-15 4 -63.5 7t-74.5 18v-379l12 -8q60 0 126 12zM641 328q-12 40 -51.5 68.5 t-83.5 31.5v-336q54 0 102 52q44 43 44 110q0 31 -11 74z" />
<glyph unicode="%" horiz-adv-x="841" d="M356 524q32 59 75 138t125 234q83 154 85 158h74q-50 -98 -90.5 -173t-94.5 -173.5t-102 -185.5q-10 -19 -95.5 -182.5t-127 -237.5t-65.5 -100q0 96 36 196q-2 0 180 326zM400 858q-28 -102 -134 -127q-27 -6 -55 -6q-77 0 -137 49q-52 40 -52 104q0 29 8 54 q17 56 62 92q44 36 108 43q64 0 104 -15q38 -14 66 -46q36 -40 36 -98q0 -24 -6 -50zM342 977q-36 47 -72 59q-24 8 -55 8q-61 0 -99 -57q-28 -46 -28 -100q0 -23 8 -59q10 -32 40 -54q30 -20 67 -22q46 0 74.5 8t48.5 34q40 50 40 105q0 38 -24 78zM830 131 q-28 -103 -134 -125q-28 -8 -57 -8q-73 0 -135 49q-52 43 -52 105q0 30 9 53q17 56 62 91.5t108 43.5q117 0 170 -62q35 -38 35 -96q0 -26 -6 -51zM772 250q-34 50 -72 59q-27 9 -57 9q-60 0 -96 -58q-29 -43 -29 -98q0 -26 8 -62q10 -32 40 -53t67 -23q46 0 74.5 8t48.5 36 q40 50 40 104q0 42 -24 78z" />
<glyph unicode="&#x26;" horiz-adv-x="1089" d="M1048 602q6 -16 6 -47q0 -52 -34 -92q-38 -41 -100 -41q2 12 24 26t29 25q27 44 27 82q0 33 -23 59q-53 60 -149 64q-23 0 -62 -8q3 -20 7.5 -71t4.5 -117q0 -346 -154 -454q-38 -26 -86 -26q-35 0 -67 8q-82 20 -117 88t-53 184q-4 34 -4 48q0 49 16.5 132.5t18.5 113.5 q-90 0 -146 11.5t-102 57.5q-72 78 -72 160q0 31 14 77q40 126 160 152q26 6 58 6q68 0 118 -40q94 -78 94 -238q0 -74 -12 -150q31 17 132.5 40.5t161.5 35.5q-2 43 -3 115q-1 110 -31 176q-9 12 -45.5 22.5t-38.5 28.5q34 5 77 5.5t88 1.5t79 5l6 -14q-6 -10 -45 -24 t-49 -40q-12 -54 -12 -153q0 -83 2 -117q15 1 49.5 7.5t52.5 6.5q36 0 62 -10q50 -18 78 -37t40 -59zM340 942q-22 68 -102 68q-10 0 -35 -4q-34 -8 -51.5 -28t-43.5 -66q-20 -44 -20 -91q0 -87 70 -163q56 -56 133 -56q16 0 45 4q26 86 26 182q0 80 -22 154zM735 660 q-54 -9 -150 -30q-97 -20 -141 -40q-6 -36 -21 -105t-23.5 -123t-8.5 -104q1 -159 107 -215q26 -13 49 -13q73 0 115 76q78 136 78 338q0 42 -2.5 105.5t-2.5 110.5z" />
<glyph unicode="'" horiz-adv-x="295" d="M223 1280q15 -40 15 -84q0 -67 -36.5 -128t-107.5 -132q-22 -22 -34 -22q-14 0 -15 24q153 114 153 278q-10 16 -26 17q-10 0 -32 -8.5t-34 -8.5q-22 0 -40 27q-16 24 -17 45q1 18 11 33q34 37 67 37q68 0 96 -78z" />
<glyph unicode="(" horiz-adv-x="397" d="M408 10q-55 4 -109.5 19t-85.5 39q-189 156 -189 428q0 116 38 250q22 80 79 148t129 110t134 50q-25 -22 -74.5 -50t-85.5 -57.5t-65 -82t-44 -139.5q-12 -111 -12 -185q1 -278 113 -428q17 -22 40.5 -37t66.5 -33.5t65 -31.5z" />
<glyph unicode=")" horiz-adv-x="422" d="M324 746q36 -134 36 -250q0 -272 -188 -428q-32 -24 -86 -39t-108 -19q22 13 64 31.5t66 33.5t42 37q112 150 112 428q0 74 -12 185q-14 86 -43 139.5t-64 82t-87 58.5q-52 29 -74 49q62 -8 134 -50t129 -110t79 -148z" />
<glyph unicode="*" d="M348 559q0 -164 -14 -184q-50 50 -66 98q-2 0 2 80q-109 -116 -137 -119q1 76 21 117q5 -1 65 61q-169 0 -189 12q54 54 99 68q-1 0 97 -4q-50 52 -118 113l54 53q66 -60 112 -108q0 104 -2 155h74q4 -57 4 -166q21 21 57 59t54 56l53 -54q-36 -40 -110 -110h151v-74 q-101 -4 -147 -4q58 -55 87 -86.5t29 -48.5q-72 1 -116 23q4 0 -60 63z" />
<glyph unicode="+" d="M272 612q-22 0 -67 -1t-65 -1q-92 0 -110 14q54 54 99 68q20 -1 57 -2q36 -2 88 -4q0 146 -2 215h74q4 -74 4 -215h205v-74q-70 -2 -207 -2v-128q0 -90 -14 -107q-50 50 -66 98q0 -1 4 139z" />
<glyph unicode="," horiz-adv-x="295" d="M223 64q15 -40 15 -84q0 -67 -36.5 -128.5t-107.5 -131.5q-22 -22 -34 -23q-14 1 -15 25q153 115 153 278q-10 16 -26 16q-10 0 -32 -8t-34 -8q-22 0 -40 26q-16 24 -17 46q1 18 11 32q34 38 67 38q68 0 96 -78z" />
<glyph unicode="-" d="M291 686h264v-74h-266q-25 0 -79.5 -1t-78.5 -1q-83 0 -101 14q54 54 99 68q-28 0 162 -6z" />
<glyph unicode="." horiz-adv-x="295" d="M196 98q4 -8 4 -24q-4 -30 -18 -48q-24 -26 -57 -26q-9 0 -25 4q-40 16 -40 62q0 22 12 40q18 28 49 36q58 0 75 -44z" />
<glyph unicode="/" horiz-adv-x="682" d="M270 524q32 59 75 138t125 234q83 154 85 158h73q-86 -170 -286 -532q-10 -19 -95.5 -182.5t-128 -238.5t-65.5 -99q0 96 37 196q-2 0 180 326z" />
<glyph unicode="0" horiz-adv-x="880" d="M760 223q-53 -108 -145.5 -165.5t-208.5 -57.5q-30 0 -46 2q-71 8 -147 66q-168 140 -168 403q0 142 43 295q34 122 129.5 202.5t206.5 94.5q42 4 58 4q148 -1 239 -115q129 -156 129 -368q0 -170 -90 -361zM670 866q-40 71 -103 114.5t-135 43.5q-54 0 -104 -26 q-136 -71 -172 -279q-12 -115 -12 -174q0 -158 55 -280.5t188 -196.5q44 -22 84 -23q101 1 178 101q113 152 113 368q0 192 -92 352z" />
<glyph unicode="1" horiz-adv-x="489" d="M461 26v-24q-70 -2 -210.5 -2t-207.5 -2q-25 4 -25 28q0 10 4 13q20 8 70 8.5t74 6t24 28.5v828q-19 -4 -34 -16.5t-37.5 -35t-39.5 -35t-34 -12.5q-11 0 -23 6v17q152 116 208 212q13 18 32 19q12 -1 43 -15v-950q-1 -40 53 -55z" />
<glyph unicode="2" horiz-adv-x="768" d="M733 172q-1 -86 -39 -125q-52 -53 -120 -53q-38 0 -73.5 12t-101 40t-106.5 41t-82 13q-90 0 -160 -86q-16 16 -16 42q0 22 24.5 66t28.5 56q34 83 97 140t182 143.5t173 150.5t54 148q0 79 -60 180q-50 84 -157 84q-58 0 -115 -22q-57 -20 -90 -46t-49 -74 q-11 -26 -11 -56q0 -38 23 -91q23 -57 103 -65q28 0 65 25t57 28q10 -11 10 -23t-20 -40q-46 -70 -152 -70q-82 6 -132 80q-26 40 -27 90q0 36 8 66q16 66 59.5 118t105 82.5t126.5 36.5q42 4 64 4q166 0 252 -119q54 -70 54 -147q0 -43 -16 -97q-32 -107 -98 -172.5 t-185.5 -136.5t-180.5 -117t-103 -128q107 34 170 36q46 0 83.5 -11t90 -33.5t93.5 -33.5q42 -12 98 -12q32 6 32 56q0 18 -4 46q-2 18 -22.5 38t-22.5 44q76 -34 90 -108z" />
<glyph unicode="3" horiz-adv-x="796" d="M727 486q33 -63 33 -140q0 -106 -62 -194q-104 -156 -321 -156q-59 0 -141 14q-80 16 -134 62t-63 114q0 108 43 152q12 14 33 26.5t35 12.5q10 -1 10 -11q-2 -22 -18.5 -63t-16.5 -75q8 -106 96 -158q67 -36 147 -37q112 -1 200 67q100 77 100 189q0 35 -12 73 q-50 152 -174 168q-50 8 -74 8q-54 0 -70 -40h-20q0 44 24 64t71 38t64 35q121 76 121 180q0 24 -6 45q-22 114 -158 152q-42 12 -84 12q-76 0 -129 -53q-71 -72 -71 -123q0 -22 18 -43q30 -33 100 -33q36 0 37 -12q0 -4 -4 -8q-37 -54 -111 -54q-60 5 -98 70q-14 26 -14 53 q0 55 66 135q98 126 249 126q78 0 154 -34q50 -20 81.5 -46t49.5 -72q16 -40 16 -78q0 -36 -16 -86q-16 -44 -41 -68t-84 -70q2 -2 51.5 -31.5t77 -53t45.5 -57.5z" />
<glyph unicode="4" horiz-adv-x="884" d="M834 454q12 -35 12 -63q0 -30 -14 -59q-36 -76 -185 -76q-10 -28 -10 -70q0 -12 2 -48q2 -34 2 -66q2 -24 23.5 -30.5t51.5 -13.5q32 -6 40 -22q-56 -4 -171.5 -5t-150.5 -3q-4 12 -4 20q13 4 43.5 7.5t46.5 11t18 27.5q0 20 4.5 60t4.5 64q0 56 -35 84q-106 30 -161 43 t-119 13q-36 0 -76 -6q-10 -3 -40 -38q-28 -34 -48 -34q-12 0 -29 16q0 22 11.5 33t37.5 25q27 14 39 30q16 26 32.5 60t36.5 83t32 75q24 60 46 127.5t33 108t33 128.5t32 129q8 0 28 1t30 1q36 -1 43 -25q-73 -330 -283 -646v-21q61 0 107.5 -7t120.5 -22q74 -14 116 -18 q2 13 10.5 129t33.5 179q26 64 88 99q-26 -148 -27 -401q3 -14 55 -14q48 2 84 59q10 21 10 33q0 14 -10 41.5t-10 48.5q52 0 66 -48z" />
<glyph unicode="5" horiz-adv-x="784" d="M742 463q14 -47 14 -97q0 -149 -144 -282q-100 -94 -268 -94q-89 0 -174 26q-54 17 -89 62q-35 44 -46 106q-5 27 -5 35q0 54 30 98.5t77 69.5q4 0 9.5 2t9.5 2q6 0 10 -10q-50 -56 -50 -129q0 -42 19 -86q20 -48 51 -75q30 -27 86 -50q52 -21 107 -21q94 0 172 72 q111 102 111 232q0 42 -13 84q-74 236 -258 250q-21 2 -65 2q-110 0 -152 -84q-4 -8 -11 -28.5t-15.5 -31t-22.5 -10.5q-35 0 -35 22q1 26 30 64q30 40 36 62q18 61 19.5 136.5t3 147.5t19.5 127q2 4 9 4q16 -1 16 -21q1 -8 17 -20q58 33 135 33q33 -1 167 -23q24 -4 32 -4 q39 0 116 37q0 -43 -24 -77q-42 -54 -115 -54q-31 0 -99 13t-104 13q-62 0 -102 -32q-12 -12 -20 -31t-12 -44t-5 -45t-2 -42q-2 -10 -4.5 -28t-4.5 -33t-2 -41q22 3 103.5 20.5t130.5 17.5q36 0 80 -10q80 -18 143 -80.5t89 -154.5z" />
<glyph unicode="6" horiz-adv-x="846" d="M788 454q20 -52 21 -110q0 -116 -88 -223q-105 -127 -271 -127q-78 0 -164 28q-64 24 -103 59t-79 99q-16 28 -30 66q-46 126 -46 238q0 118 46.5 228t136.5 204q155 160 319 159q73 -1 150 -37q62 -34 76 -80q6 -20 6 -40q0 -46 -35 -76q-33 -32 -59 -33q-8 0 -25 4 q0 14 17 50q16 37 16 57q0 34 -39 61q-69 49 -139 49q-42 0 -84 -20q-136 -70 -196 -210t-60 -312q0 -78 8 -134q30 -220 188 -290q63 -28 125 -29q79 0 137 45q94 72 94 184q0 42 -8 80q-18 86 -50 144t-99 84q-48 18 -90 18q-64 0 -131 -41q-19 -12 -34.5 -36t-28.5 -42.5 t-31 -26.5q0 48 36 96q70 98 220 105q95 0 176.5 -51t117.5 -140z" />
<glyph unicode="7" horiz-adv-x="819" d="M782 1022q-14 -39 -39 -58t-57 -40.5t-47 -53.5q-58 -86 -100 -183.5t-68 -202t-38.5 -210.5t-16.5 -231q0 -30 -37 -41q-9 -4 -27 -4q-26 0 -34 16q-18 44 -19 113q0 27 4 92q6 97 35 183t70.5 164t108.5 188t91 158q-28 16 -66 16q-10 0 -39 -2t-53 -2q-46 4 -135 34.5 t-129 30.5q-70 1 -104 -77q-6 -12 -6 -40q4 -52 40 -78q16 -10 48 -10q20 0 38 3t26 5q-8 -36 -58 -52q-12 -4 -33 -5q-35 0 -69 25q-34 26 -35 86q0 29 8 57q16 57 60.5 98t105.5 56q41 10 69 10q41 0 80.5 -11t98.5 -34t95 -34t78 -13q16 0 28 7.5t28.5 26t24.5 26t20 9.5 q53 0 53 -22z" />
<glyph unicode="8" horiz-adv-x="831" d="M764 434q30 -58 30 -122q0 -84 -50 -158q-110 -160 -342 -160q-67 0 -136 12q-170 28 -223 188q-13 38 -13 76q0 106 82 178q16 14 39.5 31t47 32t41.5 27q-68 57 -104 102.5t-36 111.5q0 174 134 258q102 66 216 65q80 0 146 -33q64 -34 100 -102q22 -52 23 -104 q1 -91 -53 -154q-18 -22 -60 -48t-55 -36q21 -16 76.5 -44t88 -53.5t48.5 -66.5zM641 784q1 106 -57 170q-72 76 -182 76q-114 0 -179 -86q-43 -54 -43 -118q0 -52 29 -97q20 -32 47.5 -52.5t59.5 -31.5t66 -18t79 -17q69 18 120.5 63t59.5 111zM696 342q-20 72 -112 106 q-52 21 -93.5 38t-79 27.5t-73.5 10.5q-99 0 -162 -98q-39 -60 -39 -127q0 -58 31 -123q30 -66 72 -92q28 -18 90 -28q46 -8 100 -9q160 5 236 95q44 53 44 116q0 30 -14 84z" />
<glyph unicode="9" horiz-adv-x="848" d="M744 891q66 -117 65 -273q-1 -220 -115 -386q-50 -68 -113.5 -122t-137 -85t-148.5 -31q-49 0 -105 16q-94 32 -108 100q-4 26 -4 36q0 29 18 59q19 30 33 45.5t35 15.5q10 0 22 -6q20 -10 21 -24q0 -12 -18.5 -41t-18.5 -47t8 -32q52 -78 144 -77q113 0 197.5 75.5 t123.5 184.5q59 171 59 301q0 158 -86 299q-82 133 -223 133q-43 0 -73 -10q-128 -40 -170 -172q-18 -54 -19 -106q0 -148 127 -226q65 -43 129 -43q45 1 99 25q27 12 44.5 30.5t41.5 51t36 44.5q10 -6 10 -18q0 -24 -18 -51q-52 -66 -119 -101.5t-159 -35.5 q-174 14 -252 156q-36 64 -37 136q0 86 53 179q96 166 316 176q234 0 342 -176z" />
<glyph unicode=":" horiz-adv-x="295" d="M196 557q4 -9 4 -25q-4 -30 -18 -46q-24 -26 -57 -27q-9 0 -25 4q-40 15 -40 61q0 22 12 41q18 30 49 35q59 0 75 -43zM196 102q4 -8 4 -24q-4 -30 -18 -48q-24 -26 -57 -26q-9 0 -25 4q-40 16 -40 62q0 22 12 40q18 30 49 36q58 0 75 -44z" />
<glyph unicode=";" horiz-adv-x="295" d="M196 557q4 -9 4 -25q-4 -30 -18 -46q-24 -26 -57 -27q-9 0 -25 4q-40 15 -40 61q0 22 12 41q18 30 49 35q59 0 75 -43zM223 64q15 -40 15 -84q0 -67 -36.5 -128.5t-107.5 -131.5q-22 -22 -34 -23q-14 1 -15 25q153 115 153 278q-10 16 -26 16q-10 0 -32 -8t-34 -8 q-22 0 -40 26q-16 24 -17 46q1 18 11 32q34 38 67 38q68 0 96 -78z" />
<glyph unicode="&#x3c;" horiz-adv-x="547" d="M26 416q28 24 98 85t151 135t137 128l49 -24q-70 -70 -215.5 -198t-153.5 -128q1 -2 78 -83t152.5 -160t127.5 -136l-42 -27q-156 153 -250 250.5t-132 157.5z" />
<glyph unicode="=" d="M291 686h264v-74h-266q-25 0 -79.5 -1t-78.5 -1q-83 0 -101 14q54 54 99 68q-28 0 162 -6zM291 486h264v-74h-266q-25 0 -79.5 -1t-78.5 -1q-83 0 -101 14q55 54 99 68q-28 0 162 -6z" />
<glyph unicode="&#x3e;" horiz-adv-x="547" d="M496 416q-38 -60 -120 -146q-84 -86 -260 -262l-44 27q48 50 202 211.5t158 167.5q-8 0 -148 124t-220 202l46 24q74 -74 198 -183.5t188 -164.5z" />
<glyph unicode="?" horiz-adv-x="602" d="M532 950q20 -44 21 -88q1 -66 -55 -152q-36 -52 -135 -118t-146 -115.5t-47 -140.5q6 -40 66 -56q21 -4 28 -4q28 0 70 25q13 8 24.5 35.5t30.5 29.5q-3 -82 -75 -114q-28 -14 -62 -14q-44 0 -78 30q-39 44 -39 102q1 44 19 82q27 53 129 137t142 125t40 107 q0 56 -45 119q-50 68 -150 72q-54 0 -87 -10t-54 -46q-29 -44 -29 -63q0 -18 14 -39q8 -11 42 -28.5t34 -43.5q-12 -18 -50 -18q-56 0 -80 32q-30 32 -30 70q0 16 11 46q63 152 243 151q16 0 54 -4q72 -8 119.5 -31.5t74.5 -77.5zM326 84q0 -52 -21 -70q-20 -18 -47 -18 q-18 0 -32 6q-46 16 -46 64q0 8 4 26q12 42 58 50q68 0 84 -58z" />
<glyph unicode="A" horiz-adv-x="1386" d="M1298 6q-12 -4 -70 -5.5t-77 -2.5q-146 0 -172 4q0 22 12.5 30t37 12t34.5 12q27 18 27 52q0 17 -6 34.5t-16 42.5q-12 25 -16 41q-31 96 -46.5 139t-43.5 91q-74 -32 -159 -32q-118 0 -211 66q-80 54 -94 86q-8 -20 -46 -112q-36 -93 -54 -128q-2 -4 -21 -46.5t-28 -71 t-9 -54.5q0 -45 22 -84q6 -10 18.5 -14.5t33.5 -8.5t30.5 -9.5t9.5 -19.5q0 -10 -6 -22q-4 -4 -166 -8q-182 0 -188 12q0 22 11 28t37 10t34 12q54 54 93 118t61 118t60 159t62 157q-48 76 -86 118q-39 42 -102 50q-78 0 -110 -30q-32 -32 -33 -115q2 -10 12.5 -36.5 t10.5 -37.5t-15 -14q-18 0 -37.5 24.5t-27.5 50.5q-6 24 -6 52q4 82 58 127q68 57 146 57q38 0 70 -14q122 -56 164 -102q6 10 15 28t11 28q44 121 72 197.5t68 183.5t61 169q9 20 23 20q16 0 32 -21t23 -39q35 -101 93.5 -279t112 -340.5t102.5 -302.5t105 -292 q6 -14 20 -20t38 -12t35.5 -11t11.5 -14q-1 -11 -21 -31zM936 524q-36 120 -73 236.5t-77 238.5q-40 123 -57 171q-58 -124 -174 -464q58 -81 103.5 -125.5t113.5 -70.5q32 -12 68 -12q58 0 96 26z" />
<glyph unicode="B" horiz-adv-x="1190" d="M1110 545q30 -69 30 -145q0 -132 -94 -238q-81 -94 -192.5 -131t-263.5 -37q-88 0 -211 10q-68 6 -121 6q-92 0 -194 -22q-10 6 -11 10q0 3 3.5 7.5t7.5 10.5q18 18 65 30t67 20t32 40q2 13 6 38.5t4 45.5q0 102 -1 444t-1 453.5v184.5q-2 24 -25 29t-67 5q-43 0 -64 11 q0 33 16 33q24 1 155.5 8.5t211.5 7.5q192 0 320.5 -51t178.5 -189q10 -26 11 -57q1 -42 -45 -131q-24 -44 -61 -74t-97 -61t-70 -37q118 -12 158 -26q103 -36 160.5 -76.5t91.5 -118.5zM979 557q-48 92 -138.5 127t-216.5 35q-88 -1 -178 -11q-10 2 -10 11q0 20 33 39 q53 12 95 22t81 24.5t78 39t73 59.5q46 47 46 137q0 78 -31 134q-32 55 -83.5 82.5t-135.5 47.5q-52 12 -98 13q-60 -1 -130 -21q-2 -90 -3 -222t-1 -308t-1 -287t-5 -249q0 -82 14 -129.5t68 -53.5q64 -6 134 -6q302 0 394 182q54 97 54 185q0 74 -39 149z" />
<glyph unicode="C" horiz-adv-x="1143" d="M1092 305q-34 -78 -104 -147t-159 -110.5t-180 -45.5q-181 0 -316 78t-223 229q-84 147 -84 293q0 152 90 342q58 124 137 211.5t183 139t238 67.5q60 0 138 -24.5t110 -24.5q28 0 67 16q13 4 15 4q14 0 22 -13.5t8 -31.5q0 -162 12 -240q-3 -14 -12 -14q-24 0 -30 33 q-9 52 -40.5 104t-79.5 89q-48 36 -100 48q-48 12 -98 13q-200 0 -370 -213q-79 -99 -121.5 -221.5t-42.5 -247.5q0 -239 139 -411q131 -166 354 -166q51 0 111 10q97 21 180 86.5t133 155.5z" />
<glyph unicode="D" horiz-adv-x="1345" d="M1210 1022q80 -148 80 -318q0 -206 -112 -418q-60 -107 -154 -170.5t-207 -89.5t-241 -26q-130 0 -334 30q-28 0 -75 -13t-71 -13q-16 0 -34 6q11 25 34.5 36.5t64.5 23.5t61 25t20 38v1143q-2 41 -68 41q-11 0 -38 -1t-46 -1q-8 6 -8 14q0 17 18 17q248 20 359 20 q213 0 405 -58q127 -40 205.5 -105t140.5 -181zM1080 1006q-73 158 -233 236q-159 79 -347 79q-66 -1 -136 -11l-2 -1210l17 -24q116 -16 219 -16q141 0 253 44q111 44 187 154q37 58 63 125t39 139q13 74 13 146q1 182 -73 338z" />
<glyph unicode="E" horiz-adv-x="1165" d="M1096 280q6 -56 6 -134q0 -94 -12 -144q-162 0 -263 0.5l-202 1t-261 0.5q-92 0 -284 -4q-10 4 -10 16q0 8 4 12q8 6 45 7q32 0 45 12q17 15 21.5 24t4.5 33l2 1168q0 29 -19 38.5t-58 10.5t-51 4q-18 1 -19 23q1 18 19 20q76 2 235 2q189 0 525 -4h126q1 -34 3.5 -94 t2.5 -88q0 -26 -4 -80q-14 22 -19 54.5t-17 45.5q-10 12 -22.5 45t-25 48.5t-42.5 15.5l-523 4v-477l543 -2q30 0 48 21.5t35 67t19 48.5l14 -25v-158q0 -67 -12 -106q-16 12 -33.5 45t-31 49t-39.5 16l-545 2v-753l611 4q66 0 100 42t53 116v43q1 30 31 30z" />
<glyph unicode="F" horiz-adv-x="981" d="M936 1116q-23 0 -31.5 19t-12.5 53t-8 43q-16 44 -34 60.5t-70 16.5l-500 2v-472h539q29 0 44 18t28 54t23 56l14 2q8 -104 8 -155q0 -67 -8 -119q-15 5 -37.5 39.5t-38 51t-41.5 16.5h-539l6 -705q0 -29 20.5 -35t75 -11.5t82.5 -19.5q4 -2 5 -6q0 -8 -17.5 -16 t-31.5 -8h-348q-14 0 -15 22q8 10 46 15t56.5 13t18.5 36v1192q0 22 -23 32t-61.5 19t-38.5 17q1 8 17 16q4 0 167 1t335 1h356q14 0 14 -16q0 1 2 -67.5t2 -108.5q0 -56 -4 -56z" />
<glyph unicode="G" horiz-adv-x="1224" d="M1170 542q0 -16 -26 -30t-30 -30q-24 -320 -238 -422q-144 -66 -278 -66q-176 0 -314 108q-228 178 -228 506q0 81 12 170q24 195 143 340q119 146 293 218q70 30 160 30q96 0 262 -43q20 0 40 8.5t32 8.5q14 0 14 -19q0 -28 9 -94.5t9 -106.5t-10 -68q-16 10 -23.5 25.5 t-16.5 44.5q-10 30 -20 48q-84 152 -286 151q-8 0 -21 -1t-20 -1q-323 -19 -435 -463q-26 -106 -26 -217q2 -165 66 -304.5t192 -240.5q82 -57 186 -57q70 1 156 27q90 28 146 96q56 70 63 166q1 16 5.5 48t4.5 48q0 62 -47 80q-10 4 -37 7t-41 11t-14 27q156 0 256 4 q14 0 35 4q22 -1 27 -13z" />
<glyph unicode="H" horiz-adv-x="1343" d="M1288 1319q-7 -6 -50.5 -10.5t-68 -12.5t-24.5 -32v-1170q0 -16 13.5 -24t41 -14t40 -11t12.5 -19t-11 -26h-348q-11 0 -11 10t9 18q6 2 52.5 9.5t68.5 20t22 38.5l2 680h-727v-672q0 -18 10 -24.5t33.5 -12t41.5 -13.5t30 -28q0 -8 -8 -14.5t-12 -9.5h-348q-8 8 -9 18 q1 13 11 23q12 15 56 20t59 10t15 31l6 1154q0 19 -14 28.5t-41.5 19.5t-42 23t-14.5 37h352q14 -18 14 -33q-11 -19 -28.5 -25t-50.5 -11t-47.5 -13t-14.5 -28l-2 -424h733v438q0 22 -15.5 28t-56.5 16q-42 10 -42 22q0 9 18 28h330q8 -2 14 -12t6 -21q0 -8 -4 -12z" />
<glyph unicode="I" horiz-adv-x="407" d="M276 104q0 -18 10 -24.5t34 -12t41 -13.5t28 -28q0 -9 -7.5 -16.5t-13.5 -11.5q-116 0 -348 4q-10 14 -10 16q0 -2 8 12q11 14 55.5 23t62.5 17t18 34l6 1154q0 19 -14.5 28.5t-42 19.5t-42 23t-14.5 37h353q16 -22 16 -33q-11 -19 -29.5 -25t-51.5 -11t-48 -13t-15 -28z " />
<glyph unicode="J" horiz-adv-x="977" d="M932 1338q-15 -13 -53 -21.5t-52 -13.5t-14 -27q0 -40 1 -141t1 -160q0 -378 -43 -625q-18 -120 -78 -206t-160 -120q-70 -24 -141 -24q-76 0 -148 27q-73 27 -129 77q-82 66 -81 180q1 58 21 112q58 154 192 176q36 4 53 4q136 0 176 -99q17 -35 17 -51t-12 -30 q-16 8 -31.5 31t-29 41t-34.5 26q-47 14 -75 14q-32 0 -64 -14q-82 -36 -102 -156q-6 -28 -6 -58q0 -62 30 -114.5t84 -85.5q63 -33 125 -33q96 -1 172 63q86 70 113.5 171t27.5 251q0 33 -1 102.5t-1 107.5v534q0 21 -18 27.5t-55 7.5t-52 3.5t-18 16.5q0 12 8.5 17.5 t29 10.5t21.5 5q36 0 104 4t101 4q67 0 113 -12z" />
<glyph unicode="K" horiz-adv-x="1179" d="M1122 80q-4 -64 -78 -88q-16 -6 -53 -6q-80 4 -133 51q-124 113 -202 249q-30 50 -64 120t-64 140t-80 183l-155 -193q1 -147 1 -248.5t3 -189.5q4 -22 23.5 -28.5t60.5 -16t41 -20.5q0 -14 -35 -37q-25 4 -75 4q-28 0 -83 -3t-85 -3q-18 0 -72 4q-14 14 -14 51 q16 8 50 10t50 9q16 6 16 32l-4 1139q0 55 -39 55h-23q-18 0 -28 10t-17 16.5t-12.5 16t-5.5 19.5q89 4 355 4q2 -5 6 -17t4 -26q-18 -25 -72 -25q-25 0 -37 -8.5t-12 -40.5q0 -104 -0.5 -293.5t-2.5 -323.5l527 617q17 14 17 31q0 15 -18.5 21.5t-55 10t-53.5 7t-25 12.5 q0 14 8 26.5t16 14.5q22 0 87 1t100 1q155 0 155 -14q0 -22 -13.5 -29t-47 -17t-47.5 -24q-64 -53 -106.5 -102.5t-140 -169.5t-153.5 -174q64 -166 119 -280t141 -242q19 -28 55.5 -92t65.5 -98t79 -58q8 -4 14 -4q14 0 42 18t42 18q16 0 28 -20z" />
<glyph unicode="L" horiz-adv-x="1065" d="M1000 272v-272h-940q-16 16 -17 35q0 8 4 12q58 12 78.5 62.5t20.5 138.5q0 22 -1 67t-1 66v473q2 266 2 402q0 24 -9 34t-21 12t-28 6h-49q-25 0 -25 17q4 32 44 37q42 0 121 2t120 2q68 0 125 -8q-2 -6 -8 -16q-4 -10 -12 -15q-16 -12 -62 -17.5t-65 -12.5t-19 -33 v-1202h280q220 0 324 20q34 6 42 40t18 80q8 46 36 64q20 16 31 16z" />
<glyph unicode="M" horiz-adv-x="1589" d="M1468 1360q-2 -19 -23 -29.5t-71 -30.5t-86 -44q-2 -38 -2 -120q0 -178 11 -393.5t23 -376t18 -168.5q4 -76 15.5 -106t55.5 -45q14 0 33.5 2t25.5 2q16 0 19 -12q0 -41 -35 -41q-29 0 -85.5 -1t-84.5 -1q-125 0 -180 14q-8 4 -8 14t4 13q14 12 55.5 19t53 10t11.5 20 q-18 278 -18 540q0 288 22 552q-98 -135 -167 -261.5t-115.5 -245.5t-82 -232t-87.5 -281q-4 -14 -30 -14q-32 10 -32 40q0 14 6 32t19 46t19 41q-239 528 -463 842q2 -78 2.5 -218t1 -274.5t4 -264.5t12.5 -267q-1 -35 57 -61l88 -15q4 -15 5 -15q0 -6 -3.5 -10t-11.5 -7 t-14 -4t-14 -3q-36 0 -112 -3t-112 -3q-74 0 -120 10q14 19 60.5 36.5t65.5 28.5t21 41q15 228 19 714q0 282 -2 411q-14 46 -99 76q-23 0 -49 -2t-32 -2q-22 0 -26 14q0 14 12 25q14 10 28 10q20 1 58 4.5t56 3.5q118 0 178 -102q66 -108 122.5 -201t103 -174t102 -190 t115.5 -244q58 150 109.5 281.5t114 251.5t155 224t219.5 174q9 6 21 6q16 0 30 -10.5t14 -25.5z" />
<glyph unicode="N" horiz-adv-x="1388" d="M1338 1331q0 -45 -21 -55t-48 -16.5t-40 -14t-23 -25.5q-55 -104 -74.5 -210.5t-19.5 -239.5q0 -38 2 -141t2 -181q0 -86 3.5 -163.5t10.5 -178.5q6 -102 8 -126q0 -18 -24 -19q-20 1 -30 15q-72 129 -183 304t-227.5 352t-211 315.5t-157.5 228.5q4 -176 4 -271 q0 -100 -3.5 -315t-4.5 -334q0 -13 -1 -41t-1 -41q-1 -94 59 -110q10 -3 36 -7.5t38 -9t12 -14.5q0 -9 -6 -17q-18 -24 -88 -24q-14 0 -57 2t-78 2q-10 0 -30.5 -4t-32.5 -4q-34 0 -42 22q0 20 28 40t32 26q37 52 53.5 99t21.5 93t9 134q12 252 12 446q0 198 -14 395 q-7 34 -44.5 40.5t-81.5 11.5t-52 30q0 28 42 37q15 2 45.5 9t49 10t37.5 3q54 0 90 -38q107 -128 200.5 -253t175.5 -248t167 -265t182 -316v86q0 612 49 864q24 122 121 156q20 6 37 6q66 -6 68 -45z" />
<glyph unicode="O" horiz-adv-x="1235" d="M1128 1016q54 -152 54 -306q0 -114 -30 -222.5t-90 -203.5q-60 -96 -148 -168q-68 -57 -156 -86.5t-178 -29.5q-86 0 -172 28q-158 56 -244 208t-106 334q-2 18 -2 52q0 146 49 286.5t145.5 252t226.5 168.5q78 39 164 39q161 0 325 -131q65 -52 100.5 -99.5t61.5 -121.5 zM1046 346q74 149 74 285q0 175 -116 371q-116 200 -277 245q-64 19 -129 19q-176 0 -305 -130q-145 -146 -145 -396q0 -174 71 -344q55 -124 166 -200t246 -84q292 0 415 234z" />
<glyph unicode="P" horiz-adv-x="1120" d="M1042 1096q34 -80 35 -170q1 -132 -81 -232q-64 -84 -150 -130q-84 -46 -178 -46q-60 0 -130 22q-54 20 -83 41t-41 64q-8 22 -8 43q0 26 24 78q18 30 64 30q4 -12 4 -18q0 -16 -18.5 -48t-18.5 -52q0 -16 4 -24q29 -88 153 -89q34 1 84 11q100 22 163 88t75 162 q6 46 6 90q0 206 -145 311q-151 105 -347 109q-32 0 -114 -9l2 -1213q0 -32 22 -37t84 -12t66 -26q0 -39 -35 -39q-7 0 -26 1t-31 1q-129 -4 -346 -4q-4 4 -4 12q0 14 12 30t22 16q44 0 82 17t38 56q0 82 0.5 450.5t1 374.5t0.5 293q0 33 -16 45t-44 16q-60 12 -72 19 t-28 35q45 2 146.5 2t160.5 2q34 2 100 2q137 0 247 -23t193.5 -83t126.5 -166z" />
<glyph unicode="Q" horiz-adv-x="1278" d="M1220 -108q0 -60 -33 -98t-97 -76q-66 -38 -134 -38q-104 0 -202 80q-57 46 -82.5 104t-36.5 138q-8 0 -23.5 -1t-21.5 -1q-292 0 -434 236q-102 176 -103 390q0 140 45.5 276.5t129.5 242.5q56 68 122 117.5t141.5 76.5t157.5 27q70 0 127 -16q234 -60 342 -291 q66 -141 66 -307q0 -116 -31 -244q-84 -356 -377 -469q0 -41 -2 -63q0 -76 31 -122q68 -102 178 -102q33 0 71 12q59 22 91.5 49t32.5 75q-2 20 -12.5 34t-33.5 32q-22 18 -28 22q-2 2 -16 7t-17 15q8 18 31 18q11 0 51 -14q56 -18 67 -110zM1012 1002q-189 274 -412 274 q-16 0 -49 -4q-215 -20 -323 -209q-96 -171 -97 -351q0 -117 41.5 -228.5t120.5 -207.5q141 -166 291 -166q26 0 53 6q8 58 8 89q1 102 -67 145q-32 20 -96 20q-33 0 -54 5q-4 0 -4 4q0 5 6 12t14 9q64 14 117 14q110 0 162 -66q20 -26 27.5 -58t10.5 -82t9 -77 q132 15 224 137q132 173 132 379q0 189 -114 355z" />
<glyph unicode="R" horiz-adv-x="1188" d="M1132 98q-24 -90 -96 -102q-37 -4 -55 -4q-81 0 -125 49q-66 72 -116 184.5t-93 212t-107 172.5q-66 72 -178 107q6 25 36 25q6 0 22 -2t24 -2q118 0 193 18t131 80q68 70 68 170q0 40 -15 92q-22 84 -89.5 136t-155.5 70q-43 10 -150 11q-50 0 -82 -1.5t-47 -3.5 q0 -818 12 -1202q0 -22 11 -42.5t26 -26.5q9 -2 28.5 -4.5t30.5 -8t15 -18.5q-64 -10 -164 -10q-26 0 -90 1t-110 1q6 18 32 23t49.5 9t28.5 24q24 86 24 230v132v838q0 22 -14.5 35t-42.5 26q-14 4 -37 5q-22 2 -30 3q-6 0 -6 8q0 11 12 13q56 0 172.5 5t187.5 5 q116 0 207 -17.5t167.5 -67t127.5 -139.5q20 -42 20 -92q0 -78 -42 -180q-103 -140 -361 -180q106 -72 139 -100q57 -48 89.5 -112t63.5 -161t59.5 -156t84.5 -110q16 -13 31 -13q49 0 88 62q10 18 10 41q0 51 -43 103q4 3 11.5 3.5t11.5 2.5q40 -50 40 -105q0 -25 -4 -37z " />
<glyph unicode="S" horiz-adv-x="1001" d="M956 436q2 -14 2 -45q0 -192 -174 -303q-133 -92 -305 -92q-165 0 -289 88q-148 102 -147 244q0 14 4 47q30 193 166 217q16 2 49 2q78 0 113 -43q-14 -8 -46.5 -9.5t-48.5 -7.5q-130 -55 -130 -233q8 -162 176 -225q96 -39 184 -39q110 -1 200 67q144 108 144 232 q0 14 -4 43q-20 114 -85 183.5t-173 118t-203 91t-153 94.5q-76 84 -80 188q0 42 12 84q22 82 78 129q58 47 154 83q40 14 84 14q32 0 65 -6t90 -20t76 -17.5t45 -3.5q40 0 61 12q33 0 33 -12q1 -34 4.5 -104.5t3.5 -102.5q0 -28 -4 -74q0 -6 -8 -6q-21 0 -29 29 q-16 79 -72.5 148t-132.5 93q-72 18 -116 19q-94 1 -162 -59q-94 -90 -94 -166q0 -38 22 -68q62 -84 190 -146t232 -109.5t178 -124t90 -210.5z" />
<glyph unicode="T" horiz-adv-x="1280" d="M1216 1112q-4 10 -21 66.5t-36 79t-61 34.5q-84 20 -224 21q-45 0 -98.5 -1.5t-87.5 -1.5v-1189q2 -25 12 -35t30 -15t30 -11q14 -10 42 -10.5t42.5 -7.5t17.5 -38q-58 -6 -124 -6h-302q-6 6 -6 12q0 11 22 39q13 16 56.5 17.5t59.5 6.5q18 5 18 37v1200q-12 0 -56 1.5 t-90 1.5q-266 1 -309 -61q-5 -8 -26 -81t-41 -81q3 38 3.5 137.5t2.5 138.5q742 0 1140 -2q12 -68 12 -135q0 -21 -2.5 -60.5t-3.5 -56.5z" />
<glyph unicode="U" horiz-adv-x="1394" d="M1331 1329q-52 -18 -80.5 -35t-40.5 -53q-28 -125 -30 -396t-12 -403t-82 -259t-240 -169q-101 -24 -197 -24q-268 0 -401 206q-28 42 -44 140t-21 223t-5 285v210q0 60 -4 131t-6 107q0 14 -12.5 18.5t-39 6.5t-39.5 7.5t-13 23.5l24 16l328 2q24 0 24 -16q0 -6 -6 -12 q-14 -13 -56 -15.5t-58.5 -7.5t-16.5 -31q-2 -150 -4 -430.5t-2 -470.5q2 -117 74.5 -201t189.5 -116q92 -26 160 -27q122 0 227 82q104 78 139 175t41 255q2 49 2 164q0 144 -4 285q-4 142 -6 206q0 34 -24 66t-56 43q-60 1 -72 23q2 24 38 24q32 0 93 1t91 1q90 0 137 -6z " />
<glyph unicode="V" horiz-adv-x="1351" d="M1284 1364q0 -20 -9 -29t-31 -21q-24 -13 -32 -24q-44 -36 -67 -79t-50 -115t-45 -105q-172 -403 -364 -965q-5 -14 -17.5 -24t-23.5 -10q-15 0 -21 14q-48 133 -107 302t-114 326.5t-119 341.5t-102 288q-8 20 -25.5 27.5t-44 12t-38.5 11.5t-12 27q6 5 18 13t28 11 q56 -2 163.5 -2t160.5 -2q0 -4 4 -12t4 -14q-14 -12 -51 -18.5t-52 -13t-15 -28.5q9 -61 59.5 -220t110.5 -332.5t114 -321.5q53 -148 74 -204q26 68 89 229t159 407q94 246 112 292q16 46 17 82q-1 30 -15 60q-5 18 -15.5 27t-24.5 14t-30.5 6.5t-31.5 3.5l-4 12q0 10 8 14 t26 7.5t19 3.5q50 8 117 8q19 0 59.5 -1t61.5 -1q8 0 27.5 1t29.5 1z" />
<glyph unicode="W" horiz-adv-x="1861" d="M1808 1338q-105 -28 -143 -122q-54 -142 -114.5 -302t-121.5 -327.5t-114 -308.5q-53 -142 -97 -256q-9 -24 -26 -24q-8 0 -10 8q-56 130 -96 230q-18 46 -48 134.5t-53 151t-49 119.5q-10 -28 -34 -87.5t-65 -164.5t-79 -201q-37 -96 -68 -176q-4 -12 -24 -16 q-8 0 -12 6q-58 144 -118 302t-115 318.5t-123 361.5q-70 202 -100 290q-5 21 -20.5 30t-40.5 15.5t-37 15.5t-12 31h352l7 -7t5 -7q2 -2 2 -10q-13 -10 -49.5 -16t-53.5 -13t-17 -31q32 -125 74 -253.5t104 -301.5t104 -292t80 -241q35 70 61 136t74.5 199t73.5 196 q-18 56 -59.5 150.5t-63.5 164.5t-26 160q0 88 68 150q52 46 120 46q48 0 119 -28q57 -24 73 -76q12 -38 13 -76q0 -60 -22 -126t-70.5 -172t-52.5 -117q102 -290 223 -582q58 153 99.5 261.5t88.5 235.5t89 253.5t75 248.5q0 90 -45 90q-33 2 -78 19q-10 7 -10 21 q0 16 20 18h322q32 0 32 -18q0 -10 -12 -10zM1050 1086q26 100 27 124q-1 52 -39 90t-80 38q-16 0 -30 -7q-60 -19 -60 -98q0 -14 4 -39q44 -210 101 -316q55 130 77 208z" />
<glyph unicode="X" horiz-adv-x="1349" d="M1272 35q4 -9 4 -13q0 -9 -8.5 -13.5t-26 -9t-19.5 -5.5q-106 4 -329 4q-17 0 -17 14q0 8 13 21q4 2 48 11q44 10 44 24q0 4 -4 12q-29 62 -70.5 129t-115 173t-102.5 150q-29 42 -58 96q-8 -11 -49.5 -72.5t-104.5 -157.5t-102 -155t-57 -85q-12 -16 -13 -37 q0 -23 41 -57q12 -8 41 -11.5t43 -13t14 -41.5q-39 -2 -112 -2q-29 0 -81.5 1t-104.5 3t-82 2q-6 2 -12.5 11t-6.5 15q1 12 15 15q108 14 188 131l352 508l-389 590q-14 22 -39.5 27t-55.5 10t-44 22q10 24 28 29q42 0 122 1t120 1q43 0 125 -4q6 -6 6 -16q-1 -22 -29 -23 q-80 0 -80 -39q0 -14 13 -33l299 -475q22 33 105 145.5t127 183t69 142.5q1 45 -59 63q-52 0 -56 17q0 37 20 37q32 0 98 1q68 1 100 1q72 0 106 -4l-4 -33q-51 -15 -68 -25t-37 -42q-76 -118 -167 -246q-92 -128 -204 -277q17 -26 55.5 -84.5t104.5 -161t139 -215 t95 -145.5q24 -46 64 -64t108 -30z" />
<glyph unicode="Y" horiz-adv-x="1345" d="M1280 1302q0 -28 -16 -38t-48 -17t-42 -16q-148 -110 -246 -260t-144 -323.5t-46 -361.5q0 -99 12 -200q6 -30 40 -37t68 -13t37 -34q-33 -4 -97 -4q-23 0 -82.5 2t-103.5 2q-26 0 -82 -4q-68 0 -74 26q6 18 66 19q43 0 68.5 8.5t31.5 38.5q16 103 17 199 q0 126 -25 252.5t-72.5 245.5t-114.5 229.5t-149 210.5q-28 35 -73 35q-25 0 -49 -15q-16 -8 -23.5 -23t-18 -46.5t-18.5 -44.5t-20 -13q-2 0 -14 4q2 66 16 115.5t55 85.5q57 49 107 49q30 0 51 -16q124 -86 190.5 -200.5t167.5 -344.5q10 -24 27.5 -75.5t35.5 -83.5 q44 104 91 210t98.5 195t124 167t166.5 130q12 4 18 4q22 0 44 -17.5t26 -40.5z" />
<glyph unicode="Z" horiz-adv-x="1005" d="M954 320q10 -38 10 -70q0 -67 -35 -125.5t-95 -94.5q-90 -52 -197 -52q-39 0 -74 4.5t-110 19t-119 20.5t-90 6q-90 0 -164 -32q-8 -4 -12 -4t-8 3t-7 7t-8 10q12 46 104 223t222.5 416t219 398.5t128.5 230.5q-1 33 -21 33q-74 -3 -221 -3q-183 0 -283 -36 q-48 -18 -57.5 -57t-17.5 -129q-1 -16 -15 -17q-14 1 -14 17q0 25 -2 75.5t-3 100.5t-1 78q0 16 24 16q246 2 406.5 4t335.5 8q28 0 28 -24q0 -18 -16 -38q-37 -68 -142.5 -258t-203.5 -364t-162 -291t-145 -270q35 6 75 6q62 0 116.5 -8.5t166 -29.5t168.5 -25 q128 0 168 100q13 34 13 62q0 32 -13 52q-14 28 -40.5 46t-55.5 18q-19 0 -33 -8q-6 -3 -11.5 -7t-11 -6.5t-11.5 -2.5q-2 0 -11 4q-8 8 -8 20q1 22 31 54q36 32 78 32q18 0 32 -6q70 -29 92 -106z" />
<glyph unicode="\" horiz-adv-x="682" d="M616 2q-19 20 -49.5 72.5t-74.5 134.5t-94 177.5t-72 135.5q-178 320 -285 532h73q188 -356 286 -530q56 -100 104 -188t76 -138q36 -98 36 -196z" />
<glyph unicode="a" horiz-adv-x="960" d="M952 238q-8 -84 -34 -144q-26 -62 -92 -78q-40 -8 -54 -8q-58 0 -106 45q-32 32 -44 68q-38 -44 -53 -57.5t-51 -28.5q-86 -39 -166 -39q-104 0 -194 64q-112 78 -113 237q0 37 6 75q12 66 35.5 116.5t62.5 90t99 70.5q84 43 168 43q98 0 196 -55q18 42 70 45 q8 0 19 -1.5t16 -2.5q-1 -43 -4 -121t-3 -135q0 -178 19 -314q9 -38 78 -38q39 8 58.5 35.5t38 76t32.5 66.5q4 0 8 -4.5t8 -5.5zM608 572q-58 82 -168 82q-62 0 -114 -30q-86 -44 -122 -116.5t-36 -175.5q8 -208 146 -264q44 -16 79 -17q115 0 213 113q0 42 -2.5 122 t-3.5 122q0 90 8 164z" />
<glyph unicode="b" horiz-adv-x="731" d="M641 547q43 -91 43 -183q0 -118 -62 -220q-90 -148 -288 -152q-86 0 -164 45t-90 105q-31 140 -31 394q0 30 1.5 86.5t2.5 104.5q1 49 3 99q0 55 2 145.5t2 130.5q0 114 -4 174q-2 24 -36 24h-28q-35 0 -35 33q69 29 149 29q14 -2 27 -4t21 -4q0 -170 -1 -277 t-1.5 -245.5t-1 -264t-0.5 -260.5q4 -181 130 -237q44 -18 88 -19q72 0 126 41q56 40 81.5 82t28.5 104q0 104 -27 169.5t-91 109.5q-39 27 -99 27h-49q-18 -2 -44 -25t-38 -23t-24 13q14 52 57 85.5t102 39.5q14 2 41 2q145 0 209 -129z" />
<glyph unicode="c" horiz-adv-x="727" d="M694 238q-4 -54 -44 -109t-91 -84q-99 -57 -201 -57q-114 0 -198 68q-132 104 -132 256q0 48 21 114q34 97 115.5 164.5t181.5 87.5q29 4 43 4q33 0 89 -12t85 -12q27 0 41 4q20 -60 20 -122q0 -34 -10 -75q-16 7 -23 23t-15 40t-21 37q-37 36 -72 52.5t-83 19.5 q-82 0 -132 -36.5t-86 -106.5q-36 -78 -36 -156q0 -108 73 -194q85 -100 195 -101q34 1 78 15q44 13 73.5 39t69 80.5t43.5 60.5h16z" />
<glyph unicode="d" horiz-adv-x="950" d="M928 234q0 -174 -107 -214q-35 -12 -65 -12q-32 0 -66 14q-56 28 -86 92q-116 -112 -272 -112q-48 0 -90 12q-70 20 -124.5 77t-68.5 128q-6 44 -6 82q-1 197 143 307q92 76 214 76q86 0 151 -39q25 1 33 9l-2 480q-2 31 -56 54q-56 0 -65 14q0 14 10.5 19.5t27.5 7 t35 4.5q56 12 88 12q54 -1 70 -31v-1007q0 -48 7.5 -80t35.5 -51q29 -16 53 -16q18 0 42 10q31 14 44.5 38t23.5 66t18 60h12zM588 154q4 44 4 132q-1 36 -2 110.5t-2 111.5v53q-44 88 -148 88q-70 -1 -147 -41q-143 -80 -143 -254q0 -47 8 -88q33 -154 151 -202 q34 -14 74 -15q91 1 205 105z" />
<glyph unicode="e" horiz-adv-x="735" d="M602 47q-120 -63 -227 -63q-135 0 -238 102q-100 110 -100 238q0 52 10 96q16 78 64.5 135t120 89t155.5 38q16 2 47 2q194 0 240 -146q8 -28 8 -56q0 -70 -58 -128q-70 -74 -204 -74q-98 0 -186 42q-8 6 -8 10q0 6 8 6q92 -20 155 -20q98 0 156 46q53 48 53 115 q0 25 -10 59q-18 62 -94 93q-40 14 -82 14q-82 1 -156 -61q-100 -82 -102 -214q0 -26 8 -79q18 -94 67 -159.5t123 -82.5q30 -6 60 -6q144 -1 282 153q-4 -36 -28 -82.5t-64 -66.5z" />
<glyph unicode="f" horiz-adv-x="493" d="M635 1202q-30 -72 -113 -72q0 22 20.5 56t20.5 55q0 20 -16 45q-27 32 -61 35q-18 0 -32 -8q-112 -66 -149 -177.5t-39 -289.5q0 -28 1 -77.5t1 -92.5q0 -8 1 -20t1 -19q21 0 75.5 2t78.5 2q62 -1 68 -19q-6 -22 -216 -22q-2 0 -2 -230q0 -178 6 -282q2 -14 13 -21 t36 -16t37.5 -18t12.5 -27q-52 0 -141.5 -2t-141.5 -2q0 14 7 20t13 11q12 -5 19 -5q18 0 30.5 15t12.5 33v368q0 104 -4 158q-10 0 -34 -1t-36 -1q-48 0 -63 8q-6 2 -6 10q0 2 4 15q5 4 69 5t66 1q2 28 2 88q0 154 19 269.5t87 213.5t202 154q14 6 40 6q46 0 84 -37 q36 -35 37 -81q0 -22 -10 -50z" />
<glyph unicode="g" horiz-adv-x="796" d="M780 641q-8 -9 -34 -15.5t-38.5 -12.5t-17.5 -25q0 -86 8 -244t8 -254q0 -72 -6 -156q-12 -154 -85 -264t-209 -174q-90 -43 -138 -43q-16 1 -36 5v16q92 26 172 80t131.5 134t58.5 177q0 34 7 85.5t7 59.5q0 34 -12 78q-10 -5 -47 -31q-37 -27 -65 -37q-67 -24 -146 -24 q-114 0 -184 57q-114 94 -115 254q0 27 8 80q24 124 108.5 200.5t210.5 94.5q120 0 214 -54q28 42 86 42q13 0 40.5 -2t41.5 -2q11 0 21.5 -6.5t10.5 -18.5zM592 545q-44 92 -170 92q-32 0 -66 -6q-72 -13 -122 -68.5t-68 -136.5q-12 -58 -12 -108q0 -140 90 -222 q62 -54 149 -53q44 1 86 17q39 14 70 48t41 74z" />
<glyph unicode="h" horiz-adv-x="981" d="M968 232q0 -164 -118 -226q-32 -14 -56 -14q-50 0 -92 43q-39 40 -53 95.5t-14 129.5q0 22 1 67t1 69q0 126 -39 196q-22 41 -74 41q-31 -1 -59 -19q-108 -76 -172.5 -205t-64.5 -267q0 -50 4 -74q3 -16 39 -24t36 -22q0 -10 -8 -20q-94 -2 -258 -2q-4 0 -5 11l-1 11 q40 10 53 16q12 6 24 28q0 409 -2 670q-2 262 -8 544q0 23 -23.5 27.5t-49 8.5t-27.5 26q4 22 196 22q8 0 18 -11.5t10 -27.5q0 -238 -3.5 -516.5t-5.5 -438.5q18 30 56.5 93t75.5 106.5t85 74t102 32.5q68 0 118 -26q50 -24 63 -80q16 -66 17.5 -158t3.5 -180t18 -148 q8 -28 53 -28q12 0 37 4q38 6 57 32t34 82t15 58h16z" />
<glyph unicode="i" horiz-adv-x="485" d="M207 1073q6 -13 6 -29q1 -60 -53 -76q-16 -4 -23 -4q-26 0 -49 18q-22 17 -30 44q-4 18 -5 26q0 40 37 64q16 10 39 10q58 0 78 -53zM463 280q8 -24 8 -48q-1 -24 -15 -74q-34 -114 -114 -144q-34 -12 -70 -12q-64 0 -112 47q-64 70 -64 166v391q-1 24 -25.5 27t-50.5 6 t-26 27q34 10 104 16t86 8q22 -2 23 -36q0 -310 4 -512q-1 -62 69 -86q16 -4 23 -5q66 1 119 103q11 20 20 64t21 62z" />
<glyph unicode="j" horiz-adv-x="317" d="M246 1073q4 -17 4 -25q0 -55 -52 -71q-8 -4 -26 -4q-29 0 -50 15.5t-28 43.5q0 52 16 72q20 22 54 22q28 0 52 -14.5t30 -38.5zM246 666q2 -52 6.5 -191t6 -202t1.5 -144q0 -267 -37 -447q-18 -82 -66.5 -135.5t-121.5 -56.5q-50 0 -81 9q-30 9 -54 40q-24 34 -25 74 q1 18 9 53q8 28 29 46t46 18q15 0 27 -6q8 -8 8 -23q0 -14 -12 -49.5t-12 -55.5q0 -24 14 -40q18 -24 51 -25q19 0 35 10q46 32 59 79.5t17 125.5q0 60 1 194t1 206q0 294 -11 460q-4 27 -26.5 33t-57.5 7.5t-35 11.5q0 8 17 24q102 4 139 4q9 -1 26 -2q18 -1 26 -2z" />
<glyph unicode="k" horiz-adv-x="813" d="M784 207q0 -107 -40 -151q-52 -58 -118 -58q-24 0 -46 8q-54 18 -80 54t-66 114t-79 114t-109 36q-43 0 -43 -40q0 -46 0.5 -113t1.5 -103q0 -14 13.5 -19t39.5 -7t35 -7q0 -33 -45 -33q-34 -2 -102 -2q-80 0 -126 2q2 18 14 21t31 5t27 15q14 22 14 45v727q0 247 -6 479 q-2 16 -27 21t-54 10t-37 23q35 18 196 18q8 0 8 -86q6 -162 7 -292t2 -305t3 -298q40 7 69 30t68 73t54 67q64 68 103 97q40 30 92 30q30 0 65 -12q23 -8 36 -29t13 -45q0 -21 -10 -41q-17 -39 -45 -39q-12 4 -19.5 28t-15.5 42q-6 18 -24 22q-54 0 -101 -33t-105 -96 t-77 -79q-12 -13 -12 -17q0 -12 50 -19q51 -6 61 -12q60 -26 93 -76t74 -118t93 -102q6 -4 16 -5q36 -1 70 65q7 14 10.5 41.5t7.5 38.5t20 11z" />
<glyph unicode="l" horiz-adv-x="426" d="M434 268q0 -130 -43 -192q-54 -80 -135 -80q-23 0 -45 8q-86 29 -112.5 101.5t-26.5 187.5v969q0 28 -24 37t-60.5 12t-36.5 10q1 9 31 25q28 12 74 12q22 0 54.5 -2t51.5 -2v-345t1 -395t1 -428q4 -106 84 -126q16 -4 24 -4q42 0 96 52q21 20 28 45.5t15.5 61t22.5 53.5 z" />
<glyph unicode="m" horiz-adv-x="1540" d="M1497 209q4 -25 4 -33q0 -69 -55 -135q-50 -59 -146 -71q-107 0 -147 132q-17 62 -17 138q0 35 6 99q5 63 5 101q0 98 -39 172q-14 30 -56 31q-26 -1 -54 -15q-66 -38 -145 -132q-79 -92 -93 -178q-10 -90 -10 -252q0 -12 7.5 -18t26 -11t29.5 -12.5t13 -22.5 q-123 -4 -189 -4q-56 0 -80 2q2 14 14.5 21t33.5 12.5t30.5 11t9.5 19.5v198q-1 210 -21 334q-4 20 -27 34t-50 15q-21 0 -41 -10q-99 -50 -169 -136q-69 -86 -95 -192q-10 -38 -10 -102q0 -16 1 -51.5t1 -55.5q0 -52 40 -63q32 -1 40 -15q0 -14 -13 -16.5t-39 -5.5 q-150 0 -209 4q-16 0 -16 26q8 8 34.5 16t40 17t13.5 31l2 471q0 33 -33 49q-12 7 -38 10t-38 13q0 25 21 25h182q8 -54 8.5 -140t6.5 -139q42 100 112 184.5t170 112.5q28 8 60 8q58 0 100 -37q36 -31 46.5 -69t16 -99t17.5 -92q159 296 309 301q134 0 174 -122 q25 -71 25 -150q0 -37 -7 -108q-7 -72 -7 -110q0 -58 14 -118q8 -36 55 -52q55 0 103 46q18 14 27 42t17 53.5t25 37.5h4z" />
<glyph unicode="n" horiz-adv-x="1007" d="M989 198q-1 -114 -125 -190q-24 -18 -53 -18q-38 0 -76 34q-86 86 -86 234q0 28 3.5 81t3.5 89q0 78 -19 135q-10 32 -33.5 55t-54.5 23q-90 -12 -162.5 -86t-115.5 -164.5t-43 -140.5v-178q0 -18 34.5 -30t34.5 -30q0 -2 -4 -14q-140 0 -246 4q-25 0 -25 12 q4 11 34 19.5t43 15.5t13 29q0 89 1 251.5t1 258.5q0 13 -15 19.5t-46.5 14t-42 11t-10.5 12.5q0 11 16 21q20 14 107 14q69 0 111 -12q-1 -32 -2.5 -52.5t-3 -48t-2 -52.5t-0.5 -42q0 -47 6 -96q39 66 83.5 140t102 122.5t137.5 48.5q54 -2 81.5 -8t53.5 -33 q82 -83 82 -203q0 -43 -10 -124.5t-10 -127.5q0 -28 2 -44q8 -74 70 -92q14 -4 24 -5q67 -1 141 147z" />
<glyph unicode="o" horiz-adv-x="833" d="M784 268q-24 -96 -93 -163t-173 -93q-54 -12 -106 -12q-149 0 -279 96q-105 86 -105 218q0 46 17 102q23 75 71.5 131.5t117 90.5t153.5 44q41 4 59 4q169 0 283 -123q69 -83 69 -195q0 -40 -14 -100zM670 506q-60 92 -144 114q-68 18 -112 19q-120 -1 -195 -113 q-57 -88 -57 -198q0 -58 16 -121q22 -68 79 -110t136 -46q8 0 22.5 -1t20.5 -1q134 0 201 88q80 106 80 213q1 82 -47 156z" />
<glyph unicode="p" horiz-adv-x="790" d="M719 549q41 -77 41 -164q0 -129 -88 -233q-128 -148 -285 -148q-46 0 -94 12q-16 4 -38.5 15t-43.5 16q-4 -68 -4 -209q0 -55 1 -159.5t1 -149.5q0 -11 9.5 -14t32.5 -6t34.5 -8t11.5 -17q0 -6 -8 -22q-181 0 -271 -2q0 14 10 20t28 10t28 11t10 22q0 189 2 500t2 555 q-2 22 -17 28t-43 8q-28 0 -40 4q-10 10 -10 17q0 11 32 21q18 0 62 6t64 6q60 0 69 -56q108 76 246 76q83 0 151.5 -34.5t106.5 -104.5zM610 221q28 88 29 166q0 127 -76 193q-63 56 -155 55q-62 0 -114 -27q-53 -28 -81 -78v-414q79 -76 157 -75q24 0 50 6q130 33 190 174 z" />
<glyph unicode="q" horiz-adv-x="819" d="M780 -522q0 -16 -42 -16q-6 0 -34 1q-26 1 -50 1q-23 -1 -50 -6t-47 -5q-23 1 -65 7q6 14 19 19t37 9t34 10q10 4 10 20q-4 180 -4 420q1 28 2 82t2 80q-44 -44 -125 -72t-158 -28q-64 0 -102 16q-80 32 -124.5 104.5t-45.5 168.5q0 103 49.5 192t134.5 141q87 60 191 60 q82 0 143 -41q9 -4 13 -4q10 0 24 15.5t24 15.5q26 0 57 3t46 3q31 0 51 -16q0 -18 -10 -26t-31.5 -18.5t-32 -22t-10.5 -32.5q2 -136 3 -274t1.5 -243.5t3 -267.5t4.5 -243q0 -16 12.5 -25.5t31 -15.5t38.5 -12zM580 551q-2 46 -42 67t-100 21q-45 -1 -88 -11 q-68 -16 -107 -65t-63 -129q-18 -58 -18 -122q0 -130 78 -214q52 -56 147 -55q23 0 65 8q118 39 124 91q8 58 8 180q0 78 -4 229z" />
<glyph unicode="r" horiz-adv-x="692" d="M654 514q-18 -56 -70 -70q-18 -6 -37 -6q-24 0 -41 14q2 6 18 33t22.5 42t6.5 30q0 13 -6 27q-27 45 -61 49q-70 0 -119 -37q-49 -36 -103 -102q-61 -94 -61 -230q1 -112 41 -188q16 -21 41 -27t65 -6q38 10 62 36t41 61t35 71h18q0 -66 -37 -122t-105 -83 q-34 -12 -65 -12q-75 0 -141 66q-31 32 -40.5 66t-15.5 102q-2 43 -3 104.5t-1 117.5t-2 136q0 13 -12 16.5t-36 4.5t-37 7t-13 23q104 15 135 17q33 0 65 -7q14 -16 15 -59q0 -12 -1 -46t-1 -60q62 83 140 145.5t155 62.5q66 0 118 -55q36 -46 36 -82q0 -17 -6 -39z" />
<glyph unicode="s" horiz-adv-x="600" d="M561 297q13 -29 13 -65q-4 -100 -76 -162q-88 -74 -214 -74q-67 0 -118 16q-53 16 -79.5 35t-47.5 63q-17 32 -17 64q0 43 34 76q34 28 44 28q8 0 14 -6q18 -18 19 -38q0 -15 -11 -45q-10 -29 -10 -45q0 -26 17 -42q59 -70 153 -69q28 0 60 6q58 14 96 51q40 36 44 88 q0 92 -66 119q-32 12 -109 22.5t-125 23.5t-83 48t-39 103q0 94 84 147q74 41 170 41q49 0 196 -22q12 -36 12 -78q0 -30 -8 -92q-16 8 -41.5 48t-39 58t-46.5 32q-42 16 -80 17q-49 -1 -104 -25q-59 -32 -59 -92q0 -16 6 -34q45 -42 162.5 -63t168 -39t80.5 -95z" />
<glyph unicode="t" d="M542 242q16 -20 17 -46q-1 -30 -17 -59q-43 -98 -155 -131q-29 -8 -65 -8q-60 0 -113 41q-67 56 -67 137q0 96 -1 230q-1 132 -1 202h-97q-36 0 -49 16q16 16 60 31t62 37q86 104 95 348q1 28 33 29q20 0 20 -12q-5 -55 -7.5 -193t-2.5 -219h264v-33h-266q0 -34 -1 -109 t-1 -114q0 -219 20 -283q16 -50 88 -50q26 0 52 6q56 10 81 54.5t51 125.5z" />
<glyph unicode="u" horiz-adv-x="981" d="M956 260q6 -28 6 -43q0 -22 -14 -51q-68 -152 -178 -152q-59 0 -84.5 22.5t-46.5 79t-31 74.5q-128 -190 -288 -190q-63 6 -96.5 17t-57.5 47q-41 70 -41 206q0 21 1 65.5t1 68.5q0 52 -2 78v52q-1 40 -17 66q-9 14 -40 20t-43.5 11t-12.5 31q64 20 216 20q12 0 12 -22 q0 -462 20 -558q14 -50 115 -49q101 16 167 85.5t66 166.5q0 191 -4 303q0 16 -12 20.5t-39 6.5t-41 9.5t-14 29.5q16 0 72 8t86 8q66 0 71 -36q6 -38 6 -128q0 -30 -1 -100t-1 -106q1 -144 17 -224q6 -26 40 -26q32 0 66 20q30 20 46 45.5t33 69t23 55.5z" />
<glyph unicode="v" horiz-adv-x="663" d="M633 694q29 -74 29 -149q0 -70 -25 -135t-55 -112.5t-91 -132.5t-89 -135q-18 -28 -84 -28q-16 50 -48.5 95t-85 104.5t-80.5 95.5q-74 110 -74 219q0 78 40 154q4 1 9 4.5t9 5.5q6 0 10 -4q8 -12 8 -24q0 -9 -7 -32q-7 -22 -7 -40q10 -66 42.5 -127t73.5 -111 t104.5 -120t93.5 -110q180 194 180 392q0 56 -14 104q-14 64 -99 92q-13 4 -17 4q-18 0 -45 -13t-34 -13q-15 0 -17 16q0 35 28 60q28 24 62 30q18 6 42 6q46 0 85.5 -26t55.5 -70z" />
<glyph unicode="w" horiz-adv-x="1034" d="M952 780q62 -84 62 -184q0 -48 -13 -99t-36 -111t-45 -118q-18 -48 -43.5 -92t-64 -99t-40.5 -59q-14 -18 -41 -18q-17 0 -23 12q-24 68 -54 127t-69 126t-75 128q-21 -27 -36.5 -64.5t-35.5 -86t-40 -80.5q-13 -20 -33.5 -69t-38.5 -72q-20 -23 -52 -23q-8 0 -24 4 q-16 66 -99 202t-110 184t-27 120q0 93 88 170h14q-24 -101 -24 -121q0 -33 10 -55q31 -68 62.5 -122t81.5 -130t68 -108q18 2 28.5 13t20.5 32t16 30q44 68 60 129.5t35.5 168t39.5 159.5h20q10 -72 35 -139t59 -132t94 -161t66 -107q56 75 78 121q72 138 72 291 q0 53 -6 109q-10 68 -106 86q-28 0 -61 -11.5t-48 -11.5q0 58 55 84q42 21 86 21q65 0 94 -44z" />
<glyph unicode="x" horiz-adv-x="899" d="M868 30q12 -4 12 -12q0 -20 -36 -20q-47 1 -136.5 1t-131.5 1q0 16 8 19t31.5 9t23.5 15q-1 5 -11 21q-38 75 -196 233q-34 -32 -67 -62.5t-56 -57.5t-38 -58t-15 -63q0 -12 15 -18t31 -12q16 -7 20 -20q-44 -8 -111 -8q-18 0 -69 1t-91 1q0 20 36.5 31t41.5 18 q45 39 86.5 82t93 100t93.5 103q-37 37 -111.5 118.5t-114.5 123.5q-42 42 -76 69q-8 6 -41 11t-33 26q45 2 138 2q120 0 166 -2v-12q-46 -20 -46 -50q0 -10 11 -24q22 -26 80.5 -88t89.5 -96q12 10 49 39.5t60.5 54t38.5 54.5q15 28 15 62q-2 19 -38 34t-43 30h262 q10 0 10 -16q-6 -11 -31.5 -19.5t-37.5 -17.5q-46 -34 -82.5 -73.5t-83 -98.5t-78.5 -95q36 -34 112.5 -124t132 -141t117.5 -71z" />
<glyph unicode="y" horiz-adv-x="936" d="M940 684q-2 -20 -12 -25t-36 -13t-34 -20q-39 -50 -64.5 -107t-55.5 -145.5t-46 -125.5q-31 -68 -97 -228.5t-120 -268t-129 -207.5q-39 -52 -75.5 -77.5t-92.5 -25.5q-98 7 -127 71q-16 41 -16 70q1 48 35 56q18 0 28 -14t22 -42t24 -44q11 -18 30 -20q78 0 128 46 t87 118t82 162q41 78 61 142q-25 46 -82 149t-136 235q-78 132 -136 212q-24 30 -53 30q-13 0 -25 -6q-34 -20 -34 -66q0 -10 2 -34t2 -37q0 -18 6 -43.5t6 -46.5q-38 53 -47 98q-9 47 -9 72q0 58 38 98q36 41 86 47q86 0 124 -61q67 -92 167 -257.5t151 -254.5 q28 53 48 103t41 111t40 123t39 124q0 22 -33 59q-8 8 -28.5 9.5t-28.5 5.5t-8 24q10 0 115 1t163 3z" />
<glyph unicode="z" horiz-adv-x="671" d="M628 96q-20 -88 -144 -120q-14 -4 -42 -4q-33 0 -65.5 9t-81.5 26t-86 27.5t-72 10.5q-67 0 -119 -45q8 42 32 80t60 78q34 41 78 90q43 50 119.5 121t112.5 109q36 40 64 90q-88 -14 -177 -15q-88 1 -182 15q-14 0 -21.5 -10.5t-15.5 -31.5t-16 -32q-8 -10 -25 -12 q0 106 41 184q20 22 52 22q16 0 36.5 -6t44.5 -16t43 -17q63 -21 127 -21q90 0 197 38q0 -33 -16 -62.5t-48 -67.5t-45 -59q-44 -58 -113.5 -122.5t-135.5 -124.5t-107 -118q27 0 86 4.5t100 4.5q20 -2 46.5 -11.5t58.5 -23.5t53 -21t41 -7q59 0 86 75q4 13 4 21 q0 22 -26 61q-6 10 -32 20.5t-26 26.5q4 10 20 10q18 0 38 -10q62 -32 61 -122q-1 -30 -5 -44z" />
<glyph unicode="&#xa2;" horiz-adv-x="727" d="M338 633q-94 -19 -156 -139q-36 -78 -36 -156q0 -108 73 -194q53 -62 115 -84q4 102 4 188v385zM414 682q22 -2 70.5 -13t78.5 -11q13 0 41 4q20 -60 20 -122q0 -34 -10 -75q-16 7 -23 23t-15 40t-21 37q-61 60 -141 72v-391q0 -138 2 -203q42 5 76 15q44 13 73.5 39 t69 80.5t43.5 60.5h16q-4 -54 -44 -109t-91 -84q-65 -40 -143 -53q-4 -116 -16 -136q-48 74 -62 134q-100 4 -178 66q-132 104 -132 256q0 48 21 114q32 94 111 161t178 89v160h74q0 -18 1 -70t1 -84z" />
<glyph unicode="&#xa9;" horiz-adv-x="1042" d="M981 334q-20 -80 -65 -144t-113.5 -109t-153.5 -67q-70 -16 -133 -16q-188 0 -350 123q-129 105 -129 272q1 62 19 125q44 142 156 229t272 105q26 4 75 4q215 0 353 -154q86 -98 86 -239q0 -55 -17 -129zM916 348q14 66 14 106q0 120 -74 208q-122 130 -303 130 q-19 0 -61 -4q-90 -10 -163 -46.5t-124 -97t-76 -140.5q-17 -60 -17 -108q0 -142 109 -230q142 -104 297 -104q48 0 115 14q110 28 184 99t99 173zM780 354q-3 -40 -32.5 -80t-69.5 -63q-74 -43 -152 -43q-84 0 -147 49q-97 79 -97 193q0 46 15 86q24 73 85 123.5t136 66.5 q45 0 101.5 -7t92.5 -7q16 -42 17 -88q0 -32 -8 -58q-16 6 -25.5 35t-19.5 39q-50 50 -117 56q-109 0 -161 -109q-30 -61 -30 -117q0 -78 56 -146q60 -76 146 -75q26 0 58 10t55 30t50.5 58.5t34.5 46.5h12z" />
<glyph unicode="&#xad;" d="M291 686h264v-74h-266q-25 0 -79.5 -1t-78.5 -1q-83 0 -101 14q54 54 99 68q-28 0 162 -6z" />
<glyph unicode="&#xae;" horiz-adv-x="1042" d="M981 334q-20 -80 -65 -144t-113.5 -109t-153.5 -67q-70 -16 -133 -16q-188 0 -350 123q-129 105 -129 272q1 62 19 125q44 142 156 229t272 105q26 4 75 4q215 0 353 -154q86 -98 86 -239q0 -55 -17 -129zM916 348q14 66 14 106q0 120 -74 208q-122 130 -303 130 q-19 0 -61 -4q-90 -10 -163 -46.5t-124 -97t-76 -140.5q-17 -60 -17 -108q0 -142 109 -230q142 -104 297 -104q48 0 115 14q110 28 184 99t99 173zM766 226q-10 -36 -43 -46q-56 0 -74 18q-26 28 -53.5 95t-51 101t-77.5 50q6 22 43 23q80 1 106 33q20 27 23 57q0 7 -4 27 q-15 56 -80 68q-24 2 -90 2q0 -286 4 -422q0 -14 6 -17q6 -2 13.5 -4t13.5 -7.5t8 -15.5q-70 -8 -160 -8q8 17 28 23t22 12q8 41 8 127v303q0 5 -17 13q-3 1 -12 0.5t-13 1.5q-6 0 -6 12q0 14 15 14q20 0 62.5 1t62.5 1q70 0 117.5 -17t74.5 -67q10 -20 10 -39t-18 -67 q-32 -48 -110 -68q24 -16 30 -22q25 -22 39 -59t28 -75q13 -37 39 -59q20 1 28 15q0 30 -15 44q7 8 25 15q18 -29 18 -63z" />
<glyph unicode="&#xb6;" horiz-adv-x="1616" d="M1075 1304v9q-51 -1 -51 -5zM1204 1264q2 -104 2 -375q0 -281 -2 -479q-1 -200 -2 -302q0 -32 17.5 -41t68.5 -22q2 0 25 -4t33 -9.5t10 -17.5t-4 -18l-676 4q-17 0 -33.5 10t-16.5 20q0 6 5 9q30 18 96.5 24.5t90.5 13.5t24 42l-4 1194q-110 -2 -163.5 -4.5t-123 -15.5 t-127.5 -41t-102 -78q-114 -132 -115 -271q0 -90 51 -176q76 -127 207 -151q36 -8 86 -8q143 0 159 94q0 26 -9 54.5t-21 52t-14 23.5q0 10 6 11q6 0 12.5 -6.5t17 -18t17.5 -18.5q29 -28 29 -72q0 -6 -3 -22t-3 -25q-22 -119 -236 -119q-230 0 -360 218q-52 89 -52 192 q0 106 54 200q117 210 354 210q79 0 220 8t214 8q131 0 234 -24q104 -22 196 -84q219 -151 219 -279q-1 -42 -23 -76q-32 -53 -63 -80t-77 -27q-86 0 -114 54l-12.5 25t-11.5 34q0 19 22 27q8 -12 26 -32t36 -26q16 -4 28 -4q64 0 78 46q6 18 6 36q-4 48 -20 96 q-47 156 -256 220zM987 64q24 2 59.5 14t35.5 41l-7 1171q-43 6 -111 8q4 -209 4 -395q0 -234 -2 -461.5t-4 -333.5q0 -32 25 -44z" />
<glyph unicode="&#xc2;" horiz-adv-x="2488" d="M2355 186q15 0 15 -10q0 -34 -27 -76q-68 -98 -162 -118q-35 -6 -71 -6q-105 0 -152 71q-113 182 -113 416q0 74 9.5 154t27.5 190q19 111 33 191q6 38 11.5 88t13.5 104q-88 -96 -154 -212t-107.5 -221t-103.5 -281q-63 -176 -97 -259q-2 -4 -7 -25.5t-9.5 -31.5 t-13.5 -20q-4 -4 -8 -5q-24 0 -25 27q23 44 23 90q0 34 -12 65t-30 65t-37 72t-26 70q-34 74 -78.5 171.5t-78 166.5t-81 153.5t-89.5 148.5q-3 -68 -4.5 -259t-3.5 -313q-2 -124 -7 -238q-2 -29 -4 -59.5t-2 -56.5q-1 -130 67 -180q12 -8 51 -10t40 -15q0 -31 -68 -31 q-64 0 -159.5 -2t-147.5 -4q-10 2 -10 12q0 12 10 18q12 10 54 19t64 19t24 36q10 219 14 320t8 247t4 232q0 105 -4 342q-41 50 -93.5 60.5t-176.5 17.5q-159 10 -189 10q-169 0 -235 -98q-18 -27 -19 -57q0 -26 16.5 -60t73.5 -34q15 0 39 4q50 0 50 -17q0 -4 -7 -10 q-66 -55 -127 -57q-30 0 -59 14q-62 32 -80 108q-6 22 -6 46q0 50 24.5 93.5t61.5 59.5q125 57 289 57q66 0 184 -10t180 -10q70 0 127 8q46 -23 70 -58q23 -36 77 -130q54 -98 100 -185t83 -159.5t89 -176.5q54 -104 114 -223q93 272 128 368t99.5 213t160.5 211t238 164 q6 4 25 4q43 0 43 -24q-16 -28 -36 -33t-59 -13t-73 -32q-16 -86 -27 -140t-18 -99t-13 -97q-26 -254 -26 -378q0 -231 78 -443q30 -82 118 -88q42 0 69.5 21t66.5 64t63 54z" />
<glyph unicode="&#xc7;" horiz-adv-x="1186" d="M1116 553q14 -56 14 -121q0 -144 -82 -246q-60 -76 -117 -118t-141 -58q-109 -20 -188 -20q-242 0 -385 160q-182 198 -182 470q0 178 86 351q86 168 206 263q119 94 299 128q16 4 48 4q47 0 123.5 -20.5t110.5 -20.5q32 1 65 13q44 0 49 -11q0 -50 10 -114.5t10 -84.5 q0 -24 -8 -36q-30 0 -43 16t-26 49t-25 47q-90 111 -244 111q-50 -1 -104 -13q-95 -22 -169.5 -84t-128.5 -153t-87 -203q-41 -136 -41 -266q0 -292 202 -469q101 -86 265 -86q109 0 197 45q65 32 113.5 82.5t74.5 116.5t26 143q0 78 -16 132t-62 98q-78 68 -142 67 q-35 -1 -64 -15q-74 -31 -117 -70.5t-51 -105.5q-1 -12 -3.5 -28.5t-2.5 -28.5q0 -45 30 -81q40 -46 107 -46q4 -6 4 -18q1 -38 -57 -48q-88 0 -140 76q-26 50 -26 107q0 99 76 195q92 110 225 110q59 0 119 -22q81 -29 128 -75.5t64 -121.5z" />
<glyph unicode="&#xce;" horiz-adv-x="1816" d="M1644 1057q110 -176 111 -377q0 -258 -176 -452q-217 -228 -531 -232q-83 0 -190 20q-51 10 -90 10q-32 0 -63 -4t-62 -11t-78 -19t-59 -14q-10 0 -22 -4q-14 0 -15 12q0 23 13 30q12 7 52 23q20 8 59 19.5t60 25t37 43.5v1129q-6 20 -23 32t-41 12q-182 -16 -324 -83 t-154 -205q0 -53 8 -80t30 -45q30 -27 86 -27q17 2 37.5 30t32.5 28q4 0 12 -4q12 -9 12 -23q0 -29 -44 -74q-34 -41 -90 -41q-28 0 -60 12q-86 32 -90 160q0 93 56 176.5t149 138.5t199 70q295 37 454 37q156 0 285.5 -28t237 -97t181.5 -188zM1501 312q93 160 93 354 q0 216 -109 401q-130 215 -451 241q-42 2 -115 2.5t-106 2.5q-2 -107 -2 -345q0 -284 4 -796v-112q18 -2 56.5 -5.5t82.5 -3.5q31 1 72 5q352 42 475 256z" />
<glyph unicode="&#xe6;" horiz-adv-x="1321" d="M608 572q-58 82 -168 82q-62 0 -114 -30q-86 -44 -122 -116.5t-36 -175.5q8 -208 146 -264q44 -16 79 -17q115 0 213 113q0 42 -2.5 122t-3.5 122q0 90 8 164zM712 514q44 75 125 118.5t181 49.5q16 2 47 2q193 0 239 -146q8 -28 9 -56q1 -70 -57 -128q-72 -74 -206 -74 q-98 0 -186 42q-8 5 -8 10q0 6 8 6q92 -20 156 -20q98 0 156 46q54 48 53 115q-1 23 -11 59q-18 62 -94 93q-40 14 -82 14q-82 1 -155 -61q-101 -82 -103 -214q0 -22 8 -79q18 -94 67 -159.5t124 -82.5q29 -6 59 -6q145 -1 283 153q-4 -38 -28.5 -84t-63.5 -65 q-117 -63 -225 -63q-84 0 -162 42l-11 -5.5l-9 -4.5q-20 -10 -50 -10q-60 0 -110 47q-32 32 -44 68q-38 -44 -53 -57.5t-51 -28.5q-86 -39 -166 -39q-104 0 -194 64q-112 78 -113 237q0 37 6 75q12 66 35.5 116.5t62.5 90t99 70.5q84 43 168 43q98 0 196 -55q18 42 70 45 q8 0 19 -1.5t16 -2.5q-1 -26 -2 -81.5t-3 -82.5z" />
<glyph unicode="&#x153;" horiz-adv-x="1358" d="M700 262q-6 28 -6 60q0 42 10 96q-8 40 -38 88q-58 92 -142 114q-68 18 -114 19q-121 -1 -193 -113q-57 -88 -57 -198q0 -56 16 -121q22 -68 79.5 -110t135.5 -46q8 0 22.5 -1t20.5 -1q134 0 201 88q47 65 65 125zM752 528q94 140 294 154q16 2 48 2q194 0 239 -146 q9 -26 9 -56q0 -70 -58 -128q-70 -74 -204 -74q-98 0 -187 42q-9 6 -9 10q0 6 9 6q91 -20 155 -20q98 0 156 46q54 48 54 115q0 25 -11 59q-18 62 -94 93q-40 14 -82 14q-81 1 -155 -61q-100 -82 -103 -214q0 -22 8 -79q18 -95 66.5 -160t124.5 -82q30 -6 59 -6 q145 -1 283 153q-4 -38 -28 -84q-24 -45 -64 -65q-121 -63 -228 -63q-134 0 -238 102q-32 32 -58 78q-74 -114 -222 -152q-54 -12 -108 -12q-149 0 -279 96q-103 84 -103 218q0 46 17 102q22 75 70 131.5t116.5 90.5t153.5 44q41 4 59 4q171 0 285 -123q6 -8 12.5 -16.5 t12.5 -18.5z" />
<glyph unicode="&#x2dc;" horiz-adv-x="2099" d="M2013 1336q-3 -29 -26 -42.5t-60 -32.5t-53 -45q-82 -126 -82 -338q0 -28 10 -247q8 -186 20 -406t19 -354q0 -6 -6 -11q-7 -6 -13 -6q-8 0 -10 4q-15 26 -25 84t-30 88q-110 178 -211.5 334t-188 282t-175.5 247t-195 258q-14 -1 -14 -15l-2 -931q1 -88 31 -129 q14 -18 43 -27t53 -16q22 -7 30 -27q-49 -14 -110 -14q-30 0 -94 4t-96 4q-50 0 -72 -4q0 25 13 32.5t39 10t34 8.5q49 82 66.5 167.5t19.5 189.5q2 102 4 218q0 222 -4 351t-20 264q-7 48 -115.5 70t-260.5 22q-50 0 -132 -4q-86 -6 -132 -31.5t-59 -87.5q-4 -24 -4 -34 q5 -54 35 -80q16 -12 30 -12q8 0 39 6t57 6q6 -12 6 -23q0 -22 -18 -31q-18 -8 -65 -26q-21 -8 -47 -8q-60 0 -109 55q-37 41 -37 105q0 34 14 58q54 90 140 125t202 35q52 0 125 -6t145 -13t124 -7q66 0 127 12q17 0 31 -20q48 -62 173 -220t206 -267t181 -259.5 t212 -339.5q2 24 2 74q0 66 -5 137.5t-12.5 159t-11.5 148.5t-4 124q-1 219 63 393q32 82 119 88q86 0 86 -50z" />
<glyph unicode="&#x2000;" horiz-adv-x="698" />
<glyph unicode="&#x2001;" horiz-adv-x="1396" />
<glyph unicode="&#x2002;" horiz-adv-x="698" />
<glyph unicode="&#x2003;" horiz-adv-x="1396" />
<glyph unicode="&#x2004;" horiz-adv-x="465" />
<glyph unicode="&#x2005;" horiz-adv-x="349" />
<glyph unicode="&#x2006;" horiz-adv-x="232" />
<glyph unicode="&#x2007;" horiz-adv-x="232" />
<glyph unicode="&#x2008;" horiz-adv-x="174" />
<glyph unicode="&#x2009;" horiz-adv-x="279" />
<glyph unicode="&#x200a;" horiz-adv-x="77" />
<glyph unicode="&#x2010;" d="M291 686h264v-74h-266q-25 0 -79.5 -1t-78.5 -1q-83 0 -101 14q54 54 99 68q-28 0 162 -6z" />
<glyph unicode="&#x2011;" d="M291 686h264v-74h-266q-25 0 -79.5 -1t-78.5 -1q-83 0 -101 14q54 54 99 68q-28 0 162 -6z" />
<glyph unicode="&#x2012;" d="M291 686h264v-74h-266q-25 0 -79.5 -1t-78.5 -1q-83 0 -101 14q54 54 99 68q-28 0 162 -6z" />
<glyph unicode="&#x2013;" horiz-adv-x="712" d="M291 686h391v-74h-393q-25 0 -79.5 -1t-78.5 -1q-83 0 -101 14q54 54 99 68q-28 0 162 -6z" />
<glyph unicode="&#x2014;" horiz-adv-x="1069" d="M436 686h588v-74h-590q-38 0 -119 -1t-119 -1q-123 0 -151 14q79 54 147 68q-38 0 244 -6z" />
<glyph unicode="&#x2018;" horiz-adv-x="295" d="M242 938q-4 -24 -14 -24q-12 0 -36 22q-70 70 -106.5 132t-36.5 128q1 44 15 84q28 78 96 78q34 0 68 -37q10 -16 10 -33q0 -22 -17 -45q-16 -27 -41 -27q-12 0 -34 9.5t-32 9.5q-14 -1 -26 -19q0 -164 154 -278z" />
<glyph unicode="&#x2019;" horiz-adv-x="295" d="M223 1280q15 -40 15 -84q0 -67 -36.5 -128t-107.5 -132q-22 -22 -34 -22q-14 0 -15 24q153 114 153 278q-10 16 -26 17q-10 0 -32 -8.5t-34 -8.5q-22 0 -40 27q-16 24 -17 45q1 18 11 33q34 37 67 37q68 0 96 -78z" />
<glyph unicode="&#x201c;" horiz-adv-x="491" d="M242 938q-4 -24 -14 -24q-12 0 -36 22q-70 70 -106.5 132t-36.5 128q1 44 15 84q28 78 96 78q34 0 68 -37q10 -16 10 -33q0 -22 -17 -45q-16 -27 -41 -27q-12 0 -34 9.5t-32 9.5q-14 -1 -26 -19q0 -164 154 -278zM454 938q-4 -24 -14 -24q-12 0 -34 22q-70 70 -107 132 t-37 128q0 44 14 84q28 78 96 78q34 0 68 -37q10 -16 10 -33q0 -22 -16 -45q-16 -27 -41 -27q-12 0 -34 10q-21 9 -31 9q-14 -1 -27 -19q-1 -164 153 -278z" />
<glyph unicode="&#x201d;" horiz-adv-x="481" d="M223 1280q15 -40 15 -84q0 -67 -36.5 -128t-107.5 -132q-22 -22 -34 -22q-14 0 -15 24q153 114 153 278q-10 16 -26 17q-10 0 -32 -8.5t-34 -8.5q-22 0 -40 27q-16 24 -17 45q1 18 11 33q34 37 67 37q68 0 96 -78zM430 1280q14 -40 14 -84q0 -67 -36 -128t-107 -132 q-22 -22 -35 -22q-14 0 -14 24q154 114 154 278q-10 16 -27 17q-10 0 -32 -9q-21 -8 -33 -8q-24 0 -42 27q-16 23 -16 43q0 16 12 35q34 37 66 37q71 0 96 -78z" />
<glyph unicode="&#x201e;" horiz-adv-x="2244" d="M2093 1338q95 -86 95 -214q0 -78 -29 -163t-89 -223q-82 -194 -177 -364t-220 -341q-32 -43 -59 -43q-12 0 -20 12q-10 21 -14 56.5t-8 67.5t-18 56q-56 114 -89 177t-75 123q-15 -40 -104 -208q-70 -128 -164 -258q-16 -22 -53 -22q-15 0 -15 16q0 114 -44 207 t-133.5 216.5t-136 209t-54.5 191.5q-2 24 -2 71q0 209 82 363q-42 0 -75.5 6t-86.5 20.5t-86.5 21.5t-71.5 7q-56 -1 -106 -19q-108 -37 -137 -112q-13 -34 -13 -68q0 -64 50 -110q48 -46 100 -46q20 0 43 7q18 5 28 12t27.5 24t26.5 23q14 0 14 -24q0 -14 -8 -27 q-28 -34 -74.5 -56t-95.5 -22q-25 1 -61 11q-76 28 -115 94q-27 48 -27 96q0 50 29 110q42 90 125.5 129t210.5 39q36 -2 72.5 -11t82.5 -24.5t79.5 -23.5t66.5 -8q69 0 123 41q8 8 16 8q19 0 37 -37q0 -34 -24 -53.5t-54 -19.5q-80 -4 -88 -150q0 -8 -1 -22t-1 -19 q0 -121 37 -203t120.5 -214t133 -255.5t61.5 -300.5q38 51 74 115.5t83 159.5t77 149q-29 40 -48 66.5t-32.5 50.5t-25.5 57q-64 152 -64 293q0 201 133 325q60 58 131 58q38 0 72 -14q112 -42 112 -203q0 -31 -2 -45q-8 -80 -32 -162t-48 -137t-84 -189q52 -104 68 -134 q16 -28 45 -86q22 -46 37.5 -92t26.5 -92q11 -48 29 -112q152 215 268 484q116 268 118 508q0 152 -141 196q-52 0 -93 -30q-40 -32 -56 -52q-14 12 -15 29q0 11 6.5 24t20.5 32t18 26q54 71 152 71q81 0 139 -50zM1510 1218q-28 68 -128 68q-24 -5 -38 -19.5t-25 -38.5 t-23 -48q-30 -66 -30 -130t23.5 -129.5t50 -112t88.5 -146.5q112 192 112 378q0 90 -30 178z" />
<glyph unicode="&#x202f;" horiz-adv-x="279" />
<glyph unicode="&#x205f;" horiz-adv-x="349" />
<glyph unicode="&#x25fc;" horiz-adv-x="685" d="M0 685h685v-685h-685v685z" />
</font>
</defs>
</svg>
